<?xml version="1.0" encoding="UTF-8" standalone="no"?>
<svg
   version="1.1"
   width="581.75293"
   height="338.74069"
   id="svg27"
   viewBox="0 0 581.75293 338.74069"
   sodipodi:docname="509eca253206aa28f0f2e89ffebb2e24.cdr"
   xmlns:inkscape="http://www.inkscape.org/namespaces/inkscape"
   xmlns:sodipodi="http://sodipodi.sourceforge.net/DTD/sodipodi-0.dtd"
   xmlns="http://www.w3.org/2000/svg"
   xmlns:svg="http://www.w3.org/2000/svg">
  <defs
     id="defs31" />
  <sodipodi:namedview
     id="namedview29"
     pagecolor="#ffffff"
     bordercolor="#666666"
     borderopacity="1.0"
     inkscape:pageshadow="2"
     inkscape:pageopacity="0.0"
     inkscape:pagecheckerboard="0" />
  <g
     id="Layer1000"
     transform="translate(-7.3190518,-194.57119)">
    <path
       d="m 375.5335,426.1326 c -3.3395,-16.5822 -4.8532,-21.512 -7.2859,-29.6558 C 353.8719,348.3607 308.617,272.6663 275.9144,239.5132 192.2086,154.6548 41.8057,194.9584 11.5075,318.4636 c -13.0341,53.1309 6.1991,103.8238 32.2467,133.5622 24.7636,28.2721 74.0938,50.7554 111.1908,62.5123 78.3264,24.8242 241.2293,47.4424 220.5885,-88.4055 z"
       style="fill:#d47e33;fill-rule:evenodd"
       id="path2" />
    <path
       d="m 569.6345,420.8341 v -79.6272 h 17.3585 v 79.6272 z"
       style="fill:#000000;fill-rule:evenodd"
       id="path4" />
    <path
       d="M 568.7726,420.8339 V 340.345 h 19.0823 v 81.3508 h -19.0823 z m 9.7581,-94.8793 c -1.435,0 -2.7708,-0.2389 -4.004,-0.7158 -1.2351,-0.4773 -2.356,-1.1912 -3.361,-2.14 -1.0109,-0.9557 -1.7731,-2.0301 -2.2822,-3.2213 -0.5096,-1.1906 -0.7646,-2.4874 -0.7646,-3.8886 0,-1.4013 0.255,-2.698 0.7646,-3.8887 0.5091,-1.1912 1.2713,-2.2656 2.2822,-3.2213 1.005,-0.9493 2.1259,-1.6631 3.361,-2.1405 1.2332,-0.4768 2.569,-0.7157 4.004,-0.7157 1.4784,0 2.844,0.2379 4.0943,0.7123 1.2586,0.4769 2.3931,1.1927 3.4001,2.1439 1.0119,0.9557 1.7731,2.0301 2.2822,3.2213 0.5096,1.1907 0.7647,2.4874 0.7647,3.8887 0,1.4012 -0.2551,2.698 -0.7647,3.8886 -0.5091,1.1912 -1.2713,2.2656 -2.2822,3.2213 -1.0065,0.9508 -2.1415,1.6661 -3.4001,2.1434 -1.2503,0.4745 -2.6159,0.7124 -4.0943,0.7124 z m -3.3845,-2.3184 c 1.0241,0.3963 2.1532,0.5947 3.3845,0.5947 1.2752,0 2.4385,-0.1999 3.4885,-0.5981 1.0412,-0.3948 1.9851,-0.9913 2.8274,-1.7867 0.837,-0.7911 1.4643,-1.672 1.8787,-2.6418 0.4153,-0.9699 0.6229,-2.0423 0.6229,-3.2154 0,-1.1731 -0.2076,-2.2456 -0.6229,-3.2154 -0.4144,-0.9699 -1.0412,-1.8508 -1.8787,-2.6418 -0.8423,-0.7959 -1.7862,-1.3925 -2.8274,-1.7873 -1.05,-0.3982 -2.2133,-0.598 -3.4885,-0.598 -1.2313,0 -2.3604,0.1984 -3.3845,0.5946 -1.0226,0.3948 -1.9568,0.9923 -2.802,1.7907 -0.837,0.791 -1.4643,1.6724 -1.8786,2.6418 -0.4153,0.9698 -0.623,2.0423 -0.623,3.2154 0,1.1731 0.2077,2.2455 0.623,3.2154 0.4143,0.9698 1.0416,1.8507 1.8786,2.6418 0.8447,0.7978 1.7794,1.3954 2.802,1.7901 z m -83.5098,-14.2799 v 37.4561 c 2.2719,-2.2666 4.8477,-4.0265 7.7255,-5.2782 3.5305,-1.5352 7.5023,-2.3037 11.9147,-2.3037 5.5523,0 10.638,1.0133 15.2547,3.0405 4.6157,2.0261 8.7525,5.0632 12.4077,9.1102 3.6492,4.0401 6.3868,8.5336 8.2092,13.4777 1.822,4.9406 2.7332,10.3282 2.7332,16.1615 0,5.8332 -0.9112,11.215 -2.7327,16.1419 -1.8249,4.9357 -4.5619,9.4102 -8.2097,13.4215 -3.6537,4.0172 -7.7901,7.0337 -12.4077,9.0472 -4.6177,2.0134 -9.7034,3.0204 -15.2547,3.0204 -5.5753,0 -10.2173,-1.0548 -14.2995,-3.1631 -3.6751,-1.8981 -6.8749,-4.6406 -9.8758,-8.2273 l -3.7094,10.4348 H 470.1874 V 308.4944 h 21.449 z m -1.7238,39.6542 V 310.2182 H 471.9111 V 419.972 h 10.2672 l 4.3382,-12.2049 0.9644,1.2283 c 3.1358,3.9927 6.4465,6.9829 10.2838,8.9646 3.8296,1.9783 8.2156,2.9677 13.5119,2.9677 5.3207,0 10.1778,-0.9576 14.5677,-2.8719 4.39,-1.9143 8.3319,-4.7916 11.8224,-8.6299 3.4963,-3.8447 6.1191,-8.1306 7.8658,-12.8558 1.7496,-4.7334 2.6251,-9.9173 2.6251,-15.5497 0,-5.633 -0.8755,-10.8232 -2.6256,-15.5694 -1.7487,-4.7432 -4.3709,-9.0501 -7.8653,-12.9187 -3.4885,-3.8623 -7.4305,-6.7582 -11.8224,-8.6861 -4.3909,-1.928 -9.2475,-2.892 -14.5677,-2.892 -4.1818,0 -7.9249,0.7187 -11.2277,2.1552 -3.2946,1.433 -6.1694,3.5872 -8.6212,6.4601 l -1.5151,1.7755 z m 32.7955,17.2516 c -1.9143,-1.9123 -3.9932,-3.3459 -6.2344,-4.2976 -2.2309,-0.9479 -4.6367,-1.4223 -7.2159,-1.4223 -2.5788,0 -4.9856,0.4744 -7.2165,1.4223 -2.2411,0.9522 -4.3201,2.3853 -6.2339,4.2976 -1.9069,1.904 -3.3375,4.0807 -4.2898,6.528 -0.9561,2.4571 -1.4344,5.201 -1.4344,8.2303 0,6.0257 1.9074,10.9179 5.7208,14.6761 1.9128,1.8855 3.9908,3.298 6.231,4.2371 2.2353,0.9366 4.6435,1.4056 7.2228,1.4056 2.6315,0 5.072,-0.469 7.3195,-1.4056 2.2514,-0.9386 4.3216,-2.3501 6.2085,-4.2336 1.8805,-1.8772 3.2916,-4.0348 4.2311,-6.4689 0.9435,-2.4435 1.415,-5.1805 1.415,-8.2107 0,-3.0293 -0.4788,-5.7732 -1.4345,-8.2298 -0.9523,-2.4478 -2.3824,-4.6245 -4.2893,-6.5285 z m -5.5611,-5.8797 c 2.4434,1.0378 4.7017,2.5925 6.7728,4.6611 2.0789,2.0761 3.6395,4.4525 4.6802,7.1276 1.0367,2.6642 1.5556,5.6148 1.5556,8.8493 0,3.2339 -0.512,6.1777 -1.5361,8.8302 -1.027,2.6608 -2.5685,5.0178 -4.622,7.0679 -2.0477,2.0438 -4.302,3.5789 -6.7606,4.604 -2.463,1.0265 -5.1233,1.5405 -7.9791,1.5405 -2.8045,0 -5.4326,-0.514 -7.8824,-1.5405 -2.4449,-1.0246 -4.7041,-2.5583 -6.7762,-4.6006 -4.1594,-4.0987 -6.2398,-9.3994 -6.2398,-15.9015 0,-3.2345 0.5189,-6.1846 1.5557,-8.8498 1.0407,-2.675 2.6017,-5.051 4.6806,-7.1271 2.0712,-2.0686 4.3289,-3.6228 6.7724,-4.6611 2.4536,-1.0421 5.0842,-1.5639 7.8897,-1.5639 2.8054,0 5.4355,0.5213 7.8892,1.5639 z M 414.3257,339.2305 c 5.3696,0 10.1216,0.8941 14.2541,2.6818 4.151,1.7961 7.6615,4.4887 10.5266,8.0759 2.846,3.5623 4.9806,7.7554 6.401,12.5753 1.4134,4.795 2.1204,10.2051 2.1204,16.2274 v 42.9049 h -20.6223 v -41.6306 c 0,-6.594 -1.3113,-11.5107 -3.9341,-14.7466 -2.5797,-3.1836 -6.4879,-4.7764 -11.7222,-4.7764 -2.7116,0 -5.1062,0.4358 -7.1812,1.3065 -2.055,0.8618 -3.8071,2.1556 -5.2538,3.8784 -1.4589,1.7379 -2.5573,3.9341 -3.2916,6.5852 -0.7461,2.6916 -1.1199,5.8606 -1.1199,9.5045 v 39.879 H 373.8809 V 340.345 h 12.757 l 3.7807,11.2477 c 2.4483,-3.8476 5.3222,-6.8011 8.8816,-8.8605 4.0342,-2.334 8.9182,-3.5017 15.0255,-3.5017 z m 13.5739,4.2571 c -3.9033,-1.6886 -8.4286,-2.5334 -13.5739,-2.5334 -5.7976,0 -10.4006,1.0891 -14.1637,3.2662 -3.7567,2.1738 -6.7131,5.4541 -9.2181,9.8358 l -0.9513,1.6641 -4.5883,-13.6516 h -9.7996 v 77.9033 h 17.1743 v -38.1552 c 0,-3.7876 0.3962,-7.1095 1.1873,-9.9628 0.8022,-2.8954 2.012,-5.3066 3.6277,-7.2311 1.6285,-1.9397 3.5985,-3.3942 5.9075,-4.3631 2.2891,-0.9606 4.9064,-1.4413 7.8477,-1.4413 5.7771,0 10.1294,1.8058 13.0551,5.4164 2.8831,3.5574 4.325,8.8356 4.325,15.8303 v 39.9068 h 17.1748 v -41.1811 c 0,-5.8674 -0.6821,-11.1158 -2.0462,-15.7427 -1.3558,-4.6011 -3.3898,-8.5987 -6.0981,-11.989 -2.6892,-3.3669 -5.9773,-5.8919 -9.8602,-7.5716 z m -113.9522,-4.2571 c 5.6129,0 10.8139,1.026 15.6011,3.0766 4.7847,2.0501 9.1458,5.1219 13.0804,9.2128 3.9317,4.0885 6.8827,8.5938 8.8513,13.5139 1.97,4.924 2.9549,10.2535 2.9549,15.9866 0,5.7335 -0.9854,11.0567 -2.9549,15.9665 -1.969,4.9084 -4.9216,9.3955 -8.8547,13.4581 -3.9336,4.0627 -8.2938,7.1134 -13.077,9.1493 -4.7877,2.0374 -9.9887,3.0571 -15.6011,3.0571 -5.6124,0 -10.8071,-1.0197 -15.5821,-3.0571 -4.7715,-2.0369 -9.1131,-5.0881 -13.0223,-9.1527 -3.9043,-4.0596 -6.8368,-8.5468 -8.7936,-13.4581 -1.9568,-4.9108 -2.9359,-10.232 -2.9359,-15.9631 0,-5.7839 0.9855,-11.1452 2.9555,-16.0819 1.9699,-4.9391 4.9225,-9.4405 8.8546,-13.5016 3.9332,-4.0626 8.2801,-7.1129 13.0385,-9.1493 4.7608,-2.0374 9.9237,-3.0571 15.4853,-3.0571 z m 14.9278,4.6587 c -4.5668,-1.9563 -9.5436,-2.935 -14.9278,-2.935 -5.3335,0 -10.2716,0.9723 -14.8121,2.9154 -4.5438,1.9446 -8.7051,4.8673 -12.4795,8.7663 -3.7758,3.8999 -6.6071,8.2121 -8.4911,12.9358 -1.8845,4.7222 -2.8275,9.8729 -2.8275,15.4487 0,5.5229 0.9367,10.6336 2.8079,15.3299 1.8718,4.6973 4.6851,8.9978 8.437,12.8992 3.7469,3.8965 7.9009,6.8182 12.4565,8.7628 4.5536,1.9431 9.524,2.9154 14.9088,2.9154 5.3852,0 10.3619,-0.9723 14.9278,-2.9154 4.5697,-1.9451 8.7437,-4.8678 12.5181,-8.7662 3.7748,-3.899 6.6057,-8.1995 8.4911,-12.8992 1.884,-4.6968 2.827,-9.8065 2.827,-15.3265 0,-5.5201 -0.9425,-10.6361 -2.827,-15.3466 -1.8854,-4.7134 -4.7178,-9.0349 -8.4945,-12.9617 -3.7739,-3.9239 -7.9459,-6.8652 -12.5147,-8.8229 z m -1.583,22.3695 c -1.8987,-1.9099 -3.961,-3.3425 -6.1841,-4.2937 -2.2148,-0.9484 -4.603,-1.4228 -7.1607,-1.4228 -2.5583,0 -4.946,0.4744 -7.1608,1.4223 -2.2221,0.9508 -4.2839,2.3828 -6.1835,4.2942 -1.8938,1.905 -3.3151,4.0836 -4.2605,6.5324 -0.9489,2.4561 -1.4238,5.1995 -1.4238,8.2293 0,3.0268 0.4701,5.7653 1.4081,8.2136 0.9337,2.4366 2.334,4.5937 4.199,6.4694 1.8693,1.8801 3.9243,3.2911 6.1611,4.2302 2.2308,0.9366 4.6518,1.4056 7.2604,1.4056 2.5621,0 4.9508,-0.4675 7.1641,-1.4022 2.2221,-0.9381 4.284,-2.3511 6.1841,-4.237 1.8923,-1.8787 3.3116,-4.0358 4.2566,-6.4694 0.9488,-2.4439 1.4237,-5.1815 1.4237,-8.2102 0,-3.0293 -0.4749,-5.7732 -1.4237,-8.2293 -0.9464,-2.4493 -2.3673,-4.6279 -4.26,-6.5324 z m -5.5108,-5.8758 c 2.4283,1.0392 4.6723,2.5949 6.7293,4.6641 2.0623,2.075 3.6111,4.451 4.644,7.1245 1.0295,2.6653 1.5449,5.6159 1.5449,8.8489 0,3.2339 -0.5154,6.1777 -1.5449,8.8297 -1.0338,2.6628 -2.5831,5.0198 -4.6474,7.0684 -2.0555,2.0403 -4.3001,3.575 -6.7293,4.6005 -2.4371,1.029 -5.0481,1.544 -7.8306,1.544 -2.8387,0 -5.482,-0.514 -7.9269,-1.5405 -2.4395,-1.0241 -4.6787,-2.5612 -6.7132,-4.6074 -2.0403,-2.0521 -3.5706,-4.409 -4.5898,-7.0684 -1.0148,-2.6472 -1.5224,-5.5899 -1.5224,-8.8263 0,-3.2335 0.5155,-6.1836 1.5449,-8.8489 1.0324,-2.6735 2.5812,-5.049 4.6445,-7.1245 2.0575,-2.0702 4.3006,-3.6258 6.7289,-4.6646 2.4356,-1.0421 5.0476,-1.5639 7.834,-1.5639 2.7859,0 5.3984,0.5218 7.834,1.5644 z m -96.1242,-21.1524 c 4.9963,0 9.418,0.8975 13.2627,2.6921 3.8559,1.7995 7.1158,4.497 9.7761,8.0896 2.6379,3.5613 4.6162,7.7519 5.932,12.5679 1.3099,4.7935 1.9651,10.1973 1.9651,16.2108 v 42.9049 h -19.244 v -41.6306 c 0,-13.015 -4.817,-19.523 -14.451,-19.523 -2.4986,0 -4.7031,0.4324 -6.613,1.2967 -1.8918,0.856 -3.5086,2.1449 -4.8473,3.8647 -1.3553,1.7414 -2.3745,3.939 -3.0561,6.5911 -0.6923,2.6945 -1.0387,5.8694 -1.0387,9.5221 v 39.879 h -19.244 v -41.6306 c 0,-6.6062 -1.2181,-11.5322 -3.6537,-14.7735 -2.3784,-3.166 -5.9784,-4.7495 -10.7983,-4.7495 -2.4986,0 -4.7031,0.4324 -6.6125,1.2967 -1.8918,0.856 -3.5086,2.1449 -4.8473,3.8647 -1.3553,1.7414 -2.3745,3.939 -3.0561,6.5911 -0.6923,2.6945 -1.0387,5.8694 -1.0387,9.5221 v 39.879 h -19.244 V 340.345 h 12.434 l 3.126,11.0591 c 2.2373,-3.745 4.8429,-6.6301 8.0637,-8.6548 3.7313,-2.3452 8.2507,-3.5188 13.9345,-3.5188 11.5003,0 19.6857,4.773 24.5554,14.3161 0.9821,-1.9055 2.1332,-3.6307 3.4519,-5.1746 1.6905,-1.9788 3.6566,-3.6571 5.8962,-5.032 2.2329,-1.3715 4.6314,-2.3999 7.1921,-3.084 2.5587,-0.6835 5.2777,-1.0255 8.155,-1.0255 z m 12.5357,4.2478 c -3.6044,-1.6827 -7.7837,-2.5241 -12.5357,-2.5241 -2.7322,0 -5.3027,0.322 -7.7104,0.965 -2.4044,0.6425 -4.6528,1.6055 -6.7416,2.8885 -2.0818,1.2782 -3.9111,2.8397 -5.4848,4.6822 -1.5762,1.8453 -2.9003,3.9785 -3.9698,6.397 l -0.7832,1.7712 -0.7891,-1.7678 c -4.4461,-9.9569 -12.3705,-14.9361 -23.7717,-14.9361 -5.352,0 -9.5739,1.0837 -13.0189,3.2491 -3.4514,2.1699 -6.1631,5.4473 -8.4839,9.826 l -1.0055,1.8967 -3.916,-13.8573 h -9.4102 v 77.9033 h 15.7965 v -38.1552 c 0,-3.7778 0.3665,-7.0943 1.0993,-9.9462 0.7437,-2.8949 1.864,-5.3032 3.3591,-7.2243 1.5122,-1.9426 3.3463,-3.402 5.5,-4.3767 2.1366,-0.9674 4.5776,-1.4511 7.32,-1.4511 5.3882,0 9.4464,1.8151 12.1722,5.4433 2.6682,3.5515 4.0035,8.8205 4.0035,15.8034 v 39.9068 h 15.7965 v -38.1552 c 0,-3.7778 0.3665,-7.0943 1.0993,-9.9462 0.7437,-2.8949 1.864,-5.3032 3.3591,-7.2243 1.5122,-1.9426 3.3463,-3.402 5.5,-4.3767 2.1371,-0.9674 4.5781,-1.4511 7.3205,-1.4511 10.7827,0 16.1747,7.0835 16.1747,21.2467 v 39.9068 h 15.7965 v -41.1811 c 0,-5.8772 -0.6327,-11.1305 -1.8976,-15.7594 -1.2582,-4.6049 -3.1446,-8.605 -5.6564,-11.9962 -2.4884,-3.361 -5.5303,-5.8807 -9.1224,-7.557 z m 332.3034,-1.4096 v 77.9033 h 15.6348 v -77.9033 z"
       style="fill:#000000;fill-rule:evenodd"
       id="path6" />
    <path
       d="m 225.6573,340.0921 c 9.7486,0 17.1984,3.4772 22.3485,10.4314 5.1506,6.9543 7.7254,16.3764 7.7254,28.2675 v 42.0431 H 238.2111 V 380.065 c 0,-13.5896 -5.1044,-20.3846 -15.3129,-20.3846 -5.2423,0 -9.2893,1.8314 -12.1405,5.4946 -2.8509,3.6628 -4.2765,9.2102 -4.2765,16.6417 v 39.0174 H 188.9607 V 380.065 c 0,-13.5896 -5.1045,-20.3846 -15.3139,-20.3846 -5.2418,0 -9.2883,1.8314 -12.1396,5.4946 -2.8517,3.6628 -4.2769,9.2102 -4.2769,16.6417 v 39.0174 h -17.5201 v -79.6272 h 10.9223 l 3.5106,12.422 c 4.7829,-9.0245 11.2273,-13.5368 22.2633,-13.5368 11.7728,0 19.958,5.1493 24.5566,15.4478 2.2071,-4.99 5.4721,-8.812 9.7947,-11.466 4.3225,-2.6545 9.2892,-3.9818 14.8996,-3.9818 z"
       style="fill:#000000;fill-rule:evenodd"
       id="path8" />
    <path
       d="m 313.9473,340.0921 c 10.9985,0 20.3532,4.0086 28.062,12.0239 7.7088,8.0153 11.564,17.6504 11.564,28.9045 0,11.254 -3.8557,20.8633 -11.564,28.8253 -7.7083,7.9615 -17.0635,11.9438 -28.062,11.9438 -10.9985,0 -20.3279,-3.9823 -27.9847,-11.9438 -7.6573,-7.962 -11.4872,-17.5713 -11.4872,-28.8253 0,-11.3601 3.8562,-21.0226 11.5644,-28.9841 7.7078,-7.9615 17.0115,-11.9443 27.9075,-11.9443 z m 13.954,25.5607 c -3.9556,-3.9798 -8.609,-5.9724 -13.954,-5.9724 -5.345,0 -9.9963,1.9911 -13.9535,5.9724 -3.9571,3.9813 -5.9367,9.1036 -5.9367,15.3677 0,6.264 1.9544,11.361 5.8595,15.2885 3.9046,3.927 8.5827,5.8923 14.0307,5.8923 5.345,0 9.9969,-1.9643 13.954,-5.8923 3.9572,-3.928 5.9363,-9.0245 5.9363,-15.2885 0,-6.2641 -1.9812,-11.3884 -5.9363,-15.3677 z"
       style="fill:#000000;fill-rule:evenodd"
       id="path10" />
    <path
       d="m 414.3255,340.0921 c 10.5159,0 18.5517,3.4772 24.1074,10.4314 5.5552,6.9543 8.3331,16.3764 8.3331,28.2675 v 42.0431 H 427.8673 V 380.065 c 0,-13.5896 -5.506,-20.3846 -16.518,-20.3846 -5.6546,0 -10.0194,1.8314 -13.095,5.4946 -3.0755,3.6628 -4.6133,9.2102 -4.6133,16.6417 v 39.0174 h -18.8982 v -79.6272 h 11.2784 l 4.1749,12.422 c 5.1591,-9.0245 12.2247,-13.5368 24.1294,-13.5368 z"
       style="fill:#000000;fill-rule:evenodd"
       id="path12" />
    <path
       d="m 490.7744,309.3563 v 39.6543 c 5.074,-5.9455 11.9077,-8.9185 20.5022,-8.9185 10.8728,0 19.8812,3.9549 27.0262,11.8647 7.1445,7.9097 10.7167,17.5976 10.7167,29.0637 0,11.4665 -3.5722,21.128 -10.7167,28.9845 -7.145,7.8565 -16.1534,11.7846 -27.0262,11.7846 -10.8718,0 -18.0521,-4.0873 -24.4724,-12.2623 l -4.0189,11.3068 H 471.0492 V 309.3563 Z m 32.5397,56.2965 c -3.9868,-3.9818 -8.6718,-5.9724 -14.0566,-5.9724 -5.3843,0 -10.0698,1.9906 -14.056,5.9724 -3.9867,3.9813 -5.9803,9.1036 -5.9803,15.3677 0,6.264 1.9936,11.36 5.9803,15.2885 3.9862,3.928 8.6717,5.8923 14.056,5.8923 5.4881,0 10.1995,-1.9643 14.1344,-5.8923 3.9348,-3.9285 5.902,-9.0245 5.902,-15.2885 0,-6.2641 -1.9936,-11.3864 -5.9798,-15.3677 z"
       style="fill:#000000;fill-rule:evenodd"
       id="path14" />
    <path
       d="m 578.5307,325.0929 c -2.667,0 -4.9253,-0.8738 -6.7754,-2.6209 -1.8497,-1.747 -2.7747,-3.9084 -2.7747,-6.4831 0,-2.5751 0.925,-4.736 2.7747,-6.4835 1.8501,-1.7471 4.1084,-2.6209 6.7754,-2.6209 2.7536,0 5.055,0.8738 6.9051,2.6209 1.8497,1.7475 2.7747,3.9084 2.7747,6.4835 0,2.5747 -0.925,4.7361 -2.7747,6.4831 -1.8501,1.7471 -4.1515,2.6209 -6.9051,2.6209 z"
       style="fill:#000000;fill-rule:evenodd"
       id="path16" />
    
  </g>
</svg>
